<svg width="512" height="512" viewBox="0 0 512 512" fill="none" xmlns="http://www.w3.org/2000/svg">
  <rect x="32" y="32" width="448" height="448" rx="88" fill="#10202F"/>
  <rect x="86" y="126" width="324" height="254" rx="28" fill="#152C3C" stroke="#5EEAD4" stroke-width="14"/>
  <rect x="118" y="166" width="124" height="36" rx="10" fill="#E0F2FE"/>
  <rect x="118" y="226" width="124" height="36" rx="10" fill="#93C5FD"/>
  <rect x="118" y="286" width="124" height="36" rx="10" fill="#FDE68A"/>
  <circle cx="322" cy="253" r="82" fill="#0F766E" stroke="#CCFBF1" stroke-width="12"/>
  <circle cx="322" cy="253" r="18" fill="#F8FAFC"/>
  <path d="M322 168C347 190 349 223 326 246C302 223 297 194 322 168Z" fill="#67E8F9"/>
  <path d="M407 253C385 278 352 280 329 256C352 233 381 228 407 253Z" fill="#67E8F9"/>
  <path d="M322 338C297 316 295 283 319 260C342 283 347 312 322 338Z" fill="#67E8F9"/>
  <path d="M237 253C259 228 292 226 315 250C292 273 263 278 237 253Z" fill="#67E8F9"/>
  <path d="M86 396H410" stroke="#FBBF24" stroke-width="18" stroke-linecap="round"/>
</svg>
