<svg xmlns="http://www.w3.org/2000/svg" width="512" height="512" fill="none" viewBox="0 0 512 512"><rect width="448" height="448" x="32" y="32" fill="#10202F" rx="88"/><rect width="324" height="254" x="86" y="126" fill="#152C3C" stroke="#5EEAD4" stroke-width="14" rx="28"/><rect width="124" height="36" x="118" y="166" fill="#E0F2FE" rx="10"/><rect width="124" height="36" x="118" y="226" fill="#93C5FD" rx="10"/><rect width="124" height="36" x="118" y="286" fill="#FDE68A" rx="10"/><circle cx="322" cy="253" r="82" fill="#0F766E" stroke="#CCFBF1" stroke-width="12"/><circle cx="322" cy="253" r="18" fill="#F8FAFC"/><path fill="#67E8F9" d="M322 168C347 190 349 223 326 246C302 223 297 194 322 168Z"/><path fill="#67E8F9" d="M407 253C385 278 352 280 329 256C352 233 381 228 407 253Z"/><path fill="#67E8F9" d="M322 338C297 316 295 283 319 260C342 283 347 312 322 338Z"/><path fill="#67E8F9" d="M237 253C259 228 292 226 315 250C292 273 263 278 237 253Z"/><path stroke="#FBBF24" stroke-linecap="round" stroke-width="18" d="M86 396H410"/></svg>